<?xml version="1.0" encoding="UTF-8"?>
<svg version="1.1" xmlns="http://www.w3.org/2000/svg" width="571" height="194">
<path d="M0 0 C10.01121252 8.62437789 18.49197055 21.29127578 19.6328125 34.703125 C19.75269531 36.61351563 19.75269531 36.61351563 19.875 38.5625 C20.63900002 45.9074903 23.25070834 48.75780652 28.70507812 53.21826172 C29.23939453 53.64510254 29.77371094 54.07194336 30.32421875 54.51171875 C35.99626002 59.11608166 40.21231526 64.8957041 42.3125 71.9375 C42.49929663 76.44396876 41.91384778 79.873577 39.6875 83.8125 C34.01776909 88.88541713 27.19373762 90.1667697 19.8203125 89.82421875 C18.78519531 89.79392578 17.75007812 89.76363281 16.68359375 89.73242188 C14.52659898 89.66104118 12.37016127 89.57001588 10.21484375 89.45898438 C3.22509156 89.28010902 3.22509156 89.28010902 -2.58984375 92.7578125 C-3.62269951 93.81741241 -4.65527744 94.87728324 -5.6875 95.9375 C-19.3588328 104.42889615 -34.90466887 107.19355812 -50.6875 104.28125 C-67.3308856 100.32503539 -80.63901086 90.83509909 -89.69799805 76.375 C-95.0900437 67.2287196 -97.11643798 58.09603598 -97.21875 47.51953125 C-97.3734375 46.66746094 -97.528125 45.81539062 -97.6875 44.9375 C-99.40849016 43.82218638 -99.40849016 43.82218638 -101.6875 42.9375 C-110.00081456 35.71051953 -118.49718027 27.81551228 -119.3125 16.1875 C-119.00614335 11.50107129 -117.2027875 9.07882075 -113.6875 5.9375 C-107.97111803 2.97723077 -102.9472023 1.7072369 -96.5546875 2.12109375 C-83.79826167 3.17198954 -83.79826167 3.17198954 -72.5 -1.75 C-71.70464844 -2.47832031 -70.90929687 -3.20664062 -70.08984375 -3.95703125 C-50.84861858 -20.820479 -18.31346469 -13.88155529 0 0 Z M-69.6875 4.9375 C-68.55828125 5.26790283 -68.55828125 5.26790283 -67.40625 5.60498047 C-40.68077615 13.49045478 -12.95590165 22.38989156 9.81640625 38.9765625 C11.29661147 40.11764148 11.29661147 40.11764148 13.3125 39.9375 C11.69172336 25.7417322 5.1827439 14.14872414 -5.6875 4.9375 C-23.31705766 -8.24227715 -52.980757 -12.36113224 -69.6875 4.9375 Z M-109.6875 11.9375 C-111.77377161 15.06690742 -112.07090852 16.27673847 -111.41796875 19.91015625 C-108.81500625 27.13442115 -102.41655023 32.18802312 -96.6875 36.9375 C-96.12482422 35.14505859 -96.12482422 35.14505859 -95.55078125 33.31640625 C-92.90715693 25.05225956 -90.34105919 17.32844695 -85.6875 9.9375 C-87.57229142 8.05270858 -90.67170638 8.71975376 -93.1875 8.6875 C-99.0069162 8.72906726 -104.5286096 9.00850381 -109.6875 11.9375 Z M-78.5078125 11.984375 C-85.01212013 20.47502807 -91.01706862 32.00417231 -89.6875 42.9375 C-87.54209936 45.0059356 -85.88605969 46.26696437 -83.375 47.75 C-82.69985352 48.17031494 -82.02470703 48.59062988 -81.32910156 49.02368164 C-79.13515048 50.36556683 -76.91770539 51.65688369 -74.6875 52.9375 C-73.98125488 53.3490332 -73.27500977 53.76056641 -72.54736328 54.18457031 C-50.69817555 66.75396823 -24.99252272 78.33469766 0.3125 80.9375 C7.4404785 72.00376695 11.66494862 63.2301753 13.8984375 51.98828125 C13.21747357 48.44272905 12.7500286 48.13749003 9.9296875 46.11328125 C8.36469965 45.13325636 6.78238278 44.18058297 5.1875 43.25 C4.33655762 42.73598633 3.48561523 42.22197266 2.60888672 41.69238281 C-36.75633382 17.82828066 -36.75633382 17.82828066 -78.5078125 11.984375 Z M-89.6875 51.9375 C-89.07432776 62.56581888 -84.65843047 71.98027481 -77.6875 79.9375 C-77.16027344 80.59234375 -76.63304687 81.2471875 -76.08984375 81.921875 C-67.68821489 91.44987608 -54.20579058 97.28234493 -41.6796875 98.14453125 C-29.13543784 98.54487964 -19.34589259 95.42065612 -8.6875 88.9375 C-8.6875 87.9475 -8.6875 86.9575 -8.6875 85.9375 C-9.2230249 85.80811035 -9.7585498 85.6787207 -10.31030273 85.54541016 C-35.88034385 79.25083057 -63.33651044 69.76125459 -84.7734375 54.05078125 C-87.35739719 51.74180858 -87.35739719 51.74180858 -89.6875 51.9375 Z M19.3125 55.9375 C19.09335938 56.83210938 18.87421875 57.72671875 18.6484375 58.6484375 C16.77620351 65.78728094 14.64164817 71.81923568 10.38671875 77.94921875 C10.03222656 78.60535156 9.67773438 79.26148438 9.3125 79.9375 C9.6425 80.9275 9.9725 81.9175 10.3125 82.9375 C22.93244014 83.73118818 22.93244014 83.73118818 34.0234375 78.5078125 C35.61751494 76.9136236 35.61751494 76.9136236 35.25 74.125 C33.31400409 67.54261392 28.34478498 61.56146361 23.3125 56.9375 C21.19348913 56.17138427 21.19348913 56.17138427 19.3125 55.9375 Z " fill="#A584EC" transform="translate(127.6875,51.0625)"/>
<path d="M0 0 C1.2375 -0.03287109 1.2375 -0.03287109 2.5 -0.06640625 C6.01028985 0.81665104 7.89229085 2.73463374 10 5.5625 C11.60822247 8.80229587 12.79562656 12.15898552 13.98828125 15.5703125 C14.33634323 16.53274872 14.68440521 17.49518494 15.04301453 18.48678589 C15.77299176 20.51340089 16.49624086 22.54245051 17.21313477 24.57373047 C18.31293711 27.68873805 19.43289368 30.79590375 20.55664062 33.90234375 C21.26420303 35.87457627 21.97062328 37.84721901 22.67578125 39.8203125 C23.17722404 41.21722824 23.17722404 41.21722824 23.688797 42.6423645 C24.14508736 43.93918655 24.14508736 43.93918655 24.6105957 45.26220703 C24.87975296 46.02211945 25.14891022 46.78203186 25.42622375 47.56497192 C26 49.5625 26 49.5625 26 52.5625 C22.04 52.5625 18.08 52.5625 14 52.5625 C13.01 48.9325 12.02 45.3025 11 41.5625 C3.41 41.5625 -4.18 41.5625 -12 41.5625 C-12.99 45.1925 -13.98 48.8225 -15 52.5625 C-18.96 52.5625 -22.92 52.5625 -27 52.5625 C-24.43755316 43.49106411 -21.28472778 34.64781001 -18.06689453 25.79248047 C-17.43593931 24.04745917 -16.81164469 22.30001599 -16.19384766 20.55029297 C-15.29270262 17.99919087 -14.37137859 15.45620779 -13.4453125 12.9140625 C-13.03878952 11.74528061 -13.03878952 11.74528061 -12.62405396 10.55288696 C-10.3091633 4.31476865 -7.20429555 -0.01125671 0 0 Z M-1 10.5625 C-2.17461555 13.66371711 -3.33830456 16.76892241 -4.5 19.875 C-4.83386719 20.75607422 -5.16773438 21.63714844 -5.51171875 22.54492188 C-5.98544922 23.81625977 -5.98544922 23.81625977 -6.46875 25.11328125 C-6.76201172 25.89356689 -7.05527344 26.67385254 -7.35742188 27.4777832 C-8.14727883 29.67673319 -8.14727883 29.67673319 -8 32.5625 C-2.72 32.5625 2.56 32.5625 8 32.5625 C5.69 25.3025 3.38 18.0425 1 10.5625 C0.34 10.5625 -0.32 10.5625 -1 10.5625 Z " fill="#FFFFFF" transform="translate(446,77.4375)"/>
<path d="M0 0 C4.52388756 4.05348333 7.54874828 8.48968138 8.3359375 14.61328125 C8.42772172 20.95557056 7.81542791 25.79825906 4 31 C-0.55274139 35.22754557 -3.22615256 36.16709419 -9.375 36.25 C-11.08816406 36.28867188 -11.08816406 36.28867188 -12.8359375 36.328125 C-16 36 -16 36 -20 33 C-20.33 38.94 -20.66 44.88 -21 51 C-24.63 51 -28.26 51 -32 51 C-32.07481328 46.05618504 -32.12891154 41.11270811 -32.16479492 36.16845703 C-32.17977234 34.49066417 -32.20016154 32.81290972 -32.22631836 31.13525391 C-32.56025759 9.14764727 -32.56025759 9.14764727 -27.35449219 3.08300781 C-19.79662681 -4.09408638 -8.98632583 -5.29153484 0 0 Z M-18.75 9.125 C-20.7824023 12.17360345 -21.12181552 15.4199773 -21 19 C-19.49717203 23.05763553 -18.61841259 24.58772494 -15 27 C-11.58500409 27.66707548 -11.58500409 27.66707548 -8 27 C-4.99601655 24.44341834 -3.37940029 22.85364143 -2.58984375 18.99609375 C-2.39610338 14.55691229 -3.06111871 11.33073213 -6 8 C-11.23889782 5.38055109 -13.99655172 6.06921182 -18.75 9.125 Z " fill="#FFFFFF" transform="translate(553,94)"/>
<path d="M0 0 C4.21813983 3.64618867 6.80008271 7.94038699 7.3359375 13.4609375 C7.34882812 14.75257812 7.36171875 16.04421875 7.375 17.375 C7.40335938 18.66148438 7.43171875 19.94796875 7.4609375 21.2734375 C6.78601259 26.73003382 4.43232528 29.73818963 0.375 33.3125 C-3.30928607 35.93028221 -5.36798166 36.15995099 -9.875 36.1875 C-10.92429687 36.20167969 -11.97359375 36.21585938 -13.0546875 36.23046875 C-16 36 -16 36 -20 34 C-20.33 39.61 -20.66 45.22 -21 51 C-24.63 51 -28.26 51 -32 51 C-32.07446471 45.57400473 -32.12875037 40.1483106 -32.16479492 34.72192383 C-32.17982988 32.87812108 -32.20026333 31.03435378 -32.22631836 29.19067383 C-32.26293561 26.5319745 -32.27977943 23.87375029 -32.29296875 21.21484375 C-32.30845261 20.39789536 -32.32393646 19.58094696 -32.33988953 18.73924255 C-32.34181042 12.12458994 -31.01538303 7.53362438 -26.8125 2.25 C-18.75406134 -4.19675093 -9.17201753 -4.62902949 0 0 Z M-19 9 C-21.77670503 12.40777436 -21.42275972 16.80691383 -21 21 C-19.82986774 24.4203866 -19.12689277 24.91540482 -16 27 C-11.65916265 27.56270114 -9.72289136 27.51859598 -6.125 24.9375 C-3.56824434 21.40316129 -3 19.35173775 -3 15 C-4.31553533 11.6798394 -5.4805934 9.5194066 -8 7 C-12.52825251 5.3647977 -15.03673409 6.4458953 -19 9 Z " fill="#FFFFFF" transform="translate(508,94)"/>
<path d="M0 0 C1.02480469 0.00322266 2.04960937 0.00644531 3.10546875 0.00976562 C4.16894531 0.01814453 5.23242188 0.02652344 6.328125 0.03515625 C7.40707031 0.03966797 8.48601562 0.04417969 9.59765625 0.04882812 C12.25786883 0.06059898 14.91796865 0.07704226 17.578125 0.09765625 C17.578125 2.40765625 17.578125 4.71765625 17.578125 7.09765625 C16.60987793 7.12738525 16.60987793 7.12738525 15.62207031 7.15771484 C12.69035279 7.25311953 9.75933268 7.36273596 6.828125 7.47265625 C5.30445313 7.5190625 5.30445313 7.5190625 3.75 7.56640625 C2.7703125 7.60507813 1.790625 7.64375 0.78125 7.68359375 C-0.56984863 7.7307251 -0.56984863 7.7307251 -1.94824219 7.77880859 C-4.54600635 8.1136566 -6.21578603 8.70195465 -8.421875 10.09765625 C-9.83629374 12.92649372 -9.74087832 14.9714237 -9.421875 18.09765625 C-6.89541209 20.90776905 -5.33049812 21.10635445 -1.5234375 21.46875 C0.7195087 21.52243754 2.95957602 21.53516185 5.203125 21.53710938 C11.3313303 21.69410403 14.84570354 23.55367765 19.390625 27.78515625 C21.94636093 32.76211569 22.19370118 38.09790326 20.515625 43.41015625 C18.8062168 47.36463973 16.40608225 49.10392852 12.578125 51.09765625 C9.34060822 52.17682851 7.00060729 52.21191226 3.59765625 52.1953125 C2.43427734 52.19208984 1.27089844 52.18886719 0.07226562 52.18554688 C-1.14267578 52.17716797 -2.35761719 52.16878906 -3.609375 52.16015625 C-4.83591797 52.15564453 -6.06246094 52.15113281 -7.32617188 52.14648438 C-10.35812168 52.1346869 -13.38997406 52.11822546 -16.421875 52.09765625 C-16.421875 49.78765625 -16.421875 47.47765625 -16.421875 45.09765625 C-15.71579102 45.0726001 -15.00970703 45.04754395 -14.28222656 45.02172852 C-11.07859991 44.90558256 -7.87525382 44.78294022 -4.671875 44.66015625 C-3.56070313 44.62083984 -2.44953125 44.58152344 -1.3046875 44.54101562 C0.30019531 44.47817383 0.30019531 44.47817383 1.9375 44.4140625 C2.92202148 44.37740479 3.90654297 44.34074707 4.92089844 44.30297852 C7.26736051 44.12166883 9.32530912 43.75433806 11.578125 43.09765625 C11.8007996 41.66230784 12.00574406 40.224201 12.203125 38.78515625 C12.31914062 37.98464844 12.43515625 37.18414062 12.5546875 36.359375 C12.79345907 33.8104241 12.79345907 33.8104241 10.578125 31.09765625 C7.60283608 30.10589328 5.09073341 29.95452297 1.97924805 29.85864258 C-10.37949888 29.436445 -10.37949888 29.436445 -15.421875 25.09765625 C-18.12519334 21.26068829 -18.97229738 17.83949628 -18.7734375 13.12109375 C-17.96356565 8.45983132 -15.72451005 5.07463254 -11.921875 2.22265625 C-7.84963095 0.39014643 -4.45932321 -0.02477402 0 0 Z " fill="#FFFFFF" transform="translate(232.421875,77.90234375)"/>
<path d="M0 0 C4.06012911 3.66026791 6.79476384 7.78771407 7.30078125 13.2421875 C7.30658203 15.04042969 7.30658203 15.04042969 7.3125 16.875 C7.32925781 18.06867188 7.34601563 19.26234375 7.36328125 20.4921875 C6.89576748 25.00646026 5.58099272 28.30636658 2.46484375 31.64453125 C-2.18155445 35.19765929 -4.40668579 36.18576145 -10.25 36.3125 C-11.36890625 36.34988281 -12.4878125 36.38726562 -13.640625 36.42578125 C-17 36 -17 36 -23 32 C-23.33 38.27 -23.66 44.54 -24 51 C-26.31 51 -28.62 51 -31 51 C-31.09938156 45.44992205 -31.1717096 39.90036982 -31.21972656 34.34960938 C-31.23975767 32.46410084 -31.26699073 30.57865377 -31.30175781 28.69335938 C-31.35065272 25.97250138 -31.37305382 23.25246944 -31.390625 20.53125 C-31.41127014 19.69758911 -31.43191528 18.86392822 -31.45318604 18.00500488 C-31.4558256 11.013687 -29.61039265 5.6809438 -24.6875 0.625 C-16.87497955 -4.09884957 -7.95717404 -4.49680634 0 0 Z M-22 9 C-24.39166195 13.6793386 -24.42753532 18.01903142 -23 23 C-20.77522052 26.52896055 -18.84020552 28.4442963 -15 30 C-11.17106143 30.32878184 -7.43353382 30.12658893 -4.33984375 27.6953125 C-0.32511855 22.99000775 0.41718064 19.04911931 0 13 C-1.808121 8.90793668 -4.16345973 6.30192416 -8 4 C-14.49053869 3.07278019 -17.41859594 3.98227174 -22 9 Z " fill="#FFFFFF" transform="translate(292,94)"/>
<path d="M0 0 C4.1333773 3.30670184 6.62577966 6.8995604 8 12 C8.35250958 16.15450005 8.28391184 20.27201422 8.1875 24.4375 C8.16719727 26.1071582 8.16719727 26.1071582 8.14648438 27.81054688 C8.11132997 30.54087212 8.06212106 33.27017744 8 36 C5.36 36 2.72 36 0 36 C-0.33 34.68 -0.66 33.36 -1 32 C-1.721875 32.66 -2.44375 33.32 -3.1875 34 C-8.21264799 37.33813402 -14.24720734 36.80338252 -20 36 C-24.76399828 34.28562 -27.16485624 31.23240028 -29.4375 26.8125 C-31.6143275 21.1395556 -32.12444569 15.61338728 -30.3046875 9.765625 C-27.67232472 3.88151997 -23.9921363 0.33691196 -18.0625 -2.3125 C-11.42927086 -3.80159226 -5.97374413 -3.13149956 0 0 Z M-21 8 C-23.70063303 12.48515026 -23.65946875 16.90118063 -23 22 C-21.37915526 25.24168949 -20.05801565 27.19736744 -17.1875 29.375 C-12.42619727 30.73537221 -9.07662283 30.56878187 -4.6875 28.25 C-1.50487116 25.58547353 -0.24753743 23.74427536 0.3359375 19.6328125 C0.42537053 13.89121169 -0.06121206 10.50147193 -4 6 C-9.80476369 2.13015754 -16.23825982 2.80537435 -21 8 Z " fill="#FFFFFF" transform="translate(336,94)"/>
<path d="M0 0 C6.09966929 6.09966929 7 10.43909149 7 19 C-2.24 19 -11.48 19 -21 19 C-17.90938152 25.46446149 -17.90938152 25.46446149 -12 28 C-8.3491481 28.56915172 -8.3491481 28.56915172 -4.625 28.6875 C-2.75714844 28.78611328 -2.75714844 28.78611328 -0.8515625 28.88671875 C0.08945312 28.92410156 1.03046875 28.96148437 2 29 C2 31.31 2 33.62 2 36 C-7.2888514 36.38763367 -15.59727075 36.44137007 -23.375 30.8125 C-27.30207041 26.60492456 -28.89681548 23.02674599 -29.09375 17.25 C-28.73331975 10.61808345 -27.38560885 6.33114865 -22.54296875 1.56640625 C-15.67882765 -4.56787681 -7.98339968 -4.43522205 0 0 Z M-20 10 C-20.33 11.32 -20.66 12.64 -21 14 C-14.4 14 -7.8 14 -1 14 C-1.53560807 8.3953504 -1.53560807 8.3953504 -3.5 5.625 C-6.71019809 3.53837124 -9.02383471 3.31444762 -12.80859375 3.4765625 C-16.75973885 4.42032978 -17.91047335 6.60451919 -20 10 Z " fill="#FFFFFF" transform="translate(410,94)"/>
<path d="M0 0 C0.99 0 1.98 0 3 0 C3.35191406 0.79664063 3.70382813 1.59328125 4.06640625 2.4140625 C7.24487581 9.23573868 10.02478091 13.45883349 16 18 C16 18.66 16 19.32 16 20 C15.13375 20.495 14.2675 20.99 13.375 21.5 C7.63140962 25.09314659 4.89539111 32.09995773 2 38 C1.34 38 0.68 38 0 38 C-0.52787109 36.80503906 -0.52787109 36.80503906 -1.06640625 35.5859375 C-4.2154308 28.82745662 -6.93034471 24.37015181 -13 20 C-12.61411864 17.61362843 -12.34492305 16.32081552 -10.546875 14.6484375 C-9.65742188 14.01808594 -9.65742188 14.01808594 -8.75 13.375 C-4.23867366 9.76593893 -2.24020458 5.22370284 0 0 Z " fill="#7B78E5" transform="translate(176,58)"/>
<path d="M0 0 C0 2.31 0 4.62 0 7 C-0.58007812 7.01417969 -1.16015625 7.02835937 -1.7578125 7.04296875 C-5.77667709 7.28834497 -9.15642421 7.6268767 -12.5 10 C-15.34453492 13.41344191 -16.02764365 15.42323064 -16.23828125 19.78125 C-15.85446191 23.35517431 -14.36759726 25.37644628 -12 28 C-8.51999724 30.61000207 -4.21205301 30.5787947 0 31 C0 33.31 0 35.62 0 38 C-7.11836904 38.45436398 -13.28040519 37.2466218 -18.875 32.625 C-23.47770934 26.93930022 -24.54807988 23.21645567 -24.3515625 15.9453125 C-23.70636225 10.53996819 -21.53341145 7.49305851 -17.625 3.6875 C-11.83380152 -0.03541331 -6.68029857 -0.26721194 0 0 Z " fill="#FFFFFF" transform="translate(376,92)"/>
</svg>
